<?xml version="1.0" encoding="UTF-8" standalone="no"?>
<!-- Created with Inkscape (http://www.inkscape.org/) -->

<svg
   version="1.1"
   id="svg343"
   width="800"
   height="800"
   viewBox="0 0 800 800"
   sodipodi:docname="bamboo-plant-pdv.svg"
   inkscape:version="1.2 (dc2aedaf03, 2022-05-15)"
   xmlns:inkscape="http://www.inkscape.org/namespaces/inkscape"
   xmlns:sodipodi="http://sodipodi.sourceforge.net/DTD/sodipodi-0.dtd"
   xmlns="http://www.w3.org/2000/svg"
   xmlns:svg="http://www.w3.org/2000/svg">
  <defs
     id="defs347">
    <clipPath
       clipPathUnits="userSpaceOnUse"
       id="clipPath359">
      <path
         d="M 0,600 H 600 V 0 H 0 Z"
         id="path357" />
    </clipPath>
  </defs>
  <sodipodi:namedview
     id="namedview345"
     pagecolor="#ffffff"
     bordercolor="#000000"
     borderopacity="0.25"
     inkscape:showpageshadow="2"
     inkscape:pageopacity="0.0"
     inkscape:pagecheckerboard="0"
     inkscape:deskcolor="#d1d1d1"
     showgrid="false"
     inkscape:zoom="1.04625"
     inkscape:cx="400"
     inkscape:cy="400.4779"
     inkscape:window-width="1920"
     inkscape:window-height="1017"
     inkscape:window-x="-8"
     inkscape:window-y="-8"
     inkscape:window-maximized="1"
     inkscape:current-layer="g351">
    <inkscape:page
       x="0"
       y="0"
       id="page349"
       width="800"
       height="800" />
  </sodipodi:namedview>
  <g
     id="g351"
     inkscape:groupmode="layer"
     inkscape:label="Page 1"
     transform="matrix(1.3333333,0,0,-1.3333333,0,800)">
    <g
       id="g353">
      <g
         id="g355"
         clip-path="url(#clipPath359)">
        <g
           id="g361"
           transform="translate(421.6914,195.2217)">
          <path
             d="m 0,0 h 30.159 c -1.976,-3.483 -2.891,-6.893 -2.891,-10.901 v -65.397 c 0,-4.008 0.915,-7.417 2.891,-10.901 H 0 c 1.976,3.484 2.891,6.893 2.891,10.901 v 65.397 C 2.891,-6.893 1.976,-3.483 0,0"
             style="fill:#9ccc54;fill-opacity:1;fill-rule:evenodd;stroke:none"
             id="path363" />
        </g>
        <g
           id="g365"
           transform="translate(440.7988,195.2217)">
          <path
             d="M 0,0 H 10.987 C 9.011,-3.483 8.096,-6.893 8.096,-10.901 v -65.397 c 0,-4.008 0.915,-7.417 2.891,-10.901 H -13.05 c 16.073,1.147 15.942,6.893 15.942,10.901 v 65.397 C 2.892,-6.893 1.977,-3.483 0,0"
             style="fill:#93c44b;fill-opacity:1;fill-rule:evenodd;stroke:none"
             id="path367" />
        </g>
        <g
           id="g369"
           transform="translate(432.2109,175.167)">
          <path
             d="M 0,0 V 0 C 3.013,0 5.479,2.465 5.479,5.477 5.479,8.49 3.013,10.956 0,10.956 -3.013,10.956 -5.477,8.49 -5.477,5.477 -5.477,2.465 -3.013,0 0,0 m 0,-2.497 v 0 c 3.013,0 5.479,-2.465 5.479,-5.478 v -46.4 c 0,-3.013 -2.466,-5.478 -5.479,-5.478 -3.013,0 -5.477,2.465 -5.477,5.478 v 46.4 c 0,3.013 2.464,5.478 5.477,5.478"
             style="fill:#a9d665;fill-opacity:1;fill-rule:evenodd;stroke:none"
             id="path371" />
        </g>
        <path
           d="m 423.157,195.222 h 27.228 v 2.522 h -27.228 z"
           style="fill:#ebd788;fill-opacity:1;fill-rule:evenodd;stroke:none"
           id="path373" />
        <path
           d="m 423.157,195.222 h 27.228 v 0.65 h -27.228 z"
           style="fill:#e0cc7b;fill-opacity:1;fill-rule:evenodd;stroke:none"
           id="path375" />
        <path
           d="m 423.157,197.095 h 27.228 v 0.649 h -27.228 z"
           style="fill:#e0cc7b;fill-opacity:1;fill-rule:evenodd;stroke:none"
           id="path377" />
        <g
           id="g379"
           transform="translate(421.6914,284.9443)">
          <path
             d="m 0,0 h 30.159 c -1.976,-3.483 -2.891,-6.893 -2.891,-10.901 v -65.397 c 0,-4.008 0.915,-7.418 2.891,-10.902 H 0 c 1.976,3.484 2.891,6.894 2.891,10.902 v 65.397 C 2.891,-6.893 1.976,-3.483 0,0"
             style="fill:#9ccc54;fill-opacity:1;fill-rule:evenodd;stroke:none"
             id="path381" />
        </g>
        <g
           id="g383"
           transform="translate(440.7988,284.9443)">
          <path
             d="M 0,0 H 10.987 C 9.011,-3.483 8.096,-6.893 8.096,-10.901 v -65.397 c 0,-4.008 0.915,-7.418 2.891,-10.902 H -13.05 c 16.073,1.148 15.942,6.894 15.942,10.902 v 65.397 C 2.892,-6.893 1.977,-3.483 0,0"
             style="fill:#93c44b;fill-opacity:1;fill-rule:evenodd;stroke:none"
             id="path385" />
        </g>
        <g
           id="g387"
           transform="translate(432.2109,264.8887)">
          <path
             d="m 0,0 v 0 c 3.013,0 5.479,2.465 5.479,5.478 0,3.013 -2.466,5.479 -5.479,5.479 -3.013,0 -5.477,-2.466 -5.477,-5.479 C -5.477,2.465 -3.013,0 0,0 m 0,-2.496 v 0 c 3.013,0 5.479,-2.465 5.479,-5.479 v -46.4 c 0,-3.013 -2.466,-5.478 -5.479,-5.478 -3.013,0 -5.477,2.465 -5.477,5.478 v 46.4 c 0,3.014 2.464,5.479 5.477,5.479"
             style="fill:#a9d665;fill-opacity:1;fill-rule:evenodd;stroke:none"
             id="path389" />
        </g>
        <path
           d="m 423.157,284.944 h 27.228 v 2.522 h -27.228 z"
           style="fill:#ebd788;fill-opacity:1;fill-rule:evenodd;stroke:none"
           id="path391" />
        <path
           d="m 423.157,284.944 h 27.228 v 0.649 h -27.228 z"
           style="fill:#e0cc7b;fill-opacity:1;fill-rule:evenodd;stroke:none"
           id="path393" />
        <path
           d="m 423.157,286.817 h 27.228 v 0.649 h -27.228 z"
           style="fill:#e0cc7b;fill-opacity:1;fill-rule:evenodd;stroke:none"
           id="path395" />
        <g
           id="g397"
           transform="translate(421.6914,374.5381)">
          <path
             d="m 0,0 h 30.159 c -1.976,-3.483 -2.891,-6.894 -2.891,-10.901 v -65.397 c 0,-4.008 0.915,-7.418 2.891,-10.902 H 0 c 1.976,3.484 2.891,6.894 2.891,10.902 v 65.397 C 2.891,-6.894 1.976,-3.483 0,0"
             style="fill:#9ccc54;fill-opacity:1;fill-rule:evenodd;stroke:none"
             id="path399" />
        </g>
        <g
           id="g401"
           transform="translate(440.8633,374.5381)">
          <path
             d="M 0,0 H 10.987 C 9.011,-3.483 8.096,-6.894 8.096,-10.901 v -65.397 c 0,-4.008 0.915,-7.418 2.891,-10.902 H -13.05 c 16.073,1.148 15.942,6.894 15.942,10.902 v 65.397 C 2.892,-6.894 1.977,-3.483 0,0"
             style="fill:#93c44b;fill-opacity:1;fill-rule:evenodd;stroke:none"
             id="path403" />
        </g>
        <g
           id="g405"
           transform="translate(432.2109,354.4824)">
          <path
             d="m 0,0 v 0 c 3.013,0 5.479,2.465 5.479,5.479 0,3.012 -2.466,5.477 -5.479,5.477 -3.013,0 -5.477,-2.465 -5.477,-5.477 C -5.477,2.465 -3.013,0 0,0 m 0,-2.496 v 0 c 3.013,0 5.479,-2.465 5.479,-5.479 v -46.4 c 0,-3.012 -2.466,-5.477 -5.479,-5.477 -3.013,0 -5.477,2.465 -5.477,5.477 v 46.4 c 0,3.014 2.464,5.479 5.477,5.479"
             style="fill:#a9d665;fill-opacity:1;fill-rule:evenodd;stroke:none"
             id="path407" />
        </g>
        <path
           d="m 423.157,374.538 h 27.228 v 2.522 h -27.228 z"
           style="fill:#ebd788;fill-opacity:1;fill-rule:evenodd;stroke:none"
           id="path409" />
        <path
           d="m 423.157,374.538 h 27.228 v 0.649 h -27.228 z"
           style="fill:#e0cc7b;fill-opacity:1;fill-rule:evenodd;stroke:none"
           id="path411" />
        <path
           d="m 423.157,376.411 h 27.228 v 0.649 h -27.228 z"
           style="fill:#e0cc7b;fill-opacity:1;fill-rule:evenodd;stroke:none"
           id="path413" />
        <g
           id="g415"
           transform="translate(421.6914,464.2607)">
          <path
             d="m 0,0 h 30.159 c -1.976,-3.484 -2.891,-6.894 -2.891,-10.901 v -65.398 c 0,-4.008 0.915,-7.417 2.891,-10.901 L 0,-87.2 c 1.976,3.484 2.891,6.893 2.891,10.901 v 65.398 C 2.891,-6.894 1.976,-3.484 0,0"
             style="fill:#9ccc54;fill-opacity:1;fill-rule:evenodd;stroke:none"
             id="path417" />
        </g>
        <g
           id="g419"
           transform="translate(440.8633,464.2607)">
          <path
             d="M 0,0 H 10.987 C 9.011,-3.484 8.096,-6.894 8.096,-10.901 v -65.398 c 0,-4.008 0.915,-7.417 2.891,-10.901 H -13.05 c 16.073,1.148 15.942,6.893 15.942,10.901 v 65.398 C 2.892,-6.894 1.977,-3.484 0,0"
             style="fill:#93c44b;fill-opacity:1;fill-rule:evenodd;stroke:none"
             id="path421" />
        </g>
        <g
           id="g423"
           transform="translate(432.2109,444.2051)">
          <path
             d="m 0,0 v 0 c 3.013,0 5.479,2.465 5.479,5.478 0,3.013 -2.466,5.478 -5.479,5.478 -3.013,0 -5.477,-2.465 -5.477,-5.478 C -5.477,2.465 -3.013,0 0,0 m 0,-2.497 v 0 c 3.013,0 5.479,-2.465 5.479,-5.478 v -46.4 c 0,-3.013 -2.466,-5.479 -5.479,-5.479 -3.013,0 -5.477,2.466 -5.477,5.479 v 46.4 c 0,3.013 2.464,5.478 5.477,5.478"
             style="fill:#a9d665;fill-opacity:1;fill-rule:evenodd;stroke:none"
             id="path425" />
        </g>
        <path
           d="m 423.157,464.261 h 27.228 v 2.522 h -27.228 z"
           style="fill:#ebd788;fill-opacity:1;fill-rule:evenodd;stroke:none"
           id="path427" />
        <path
           d="m 423.157,464.261 h 27.228 v 0.649 h -27.228 z"
           style="fill:#e0cc7b;fill-opacity:1;fill-rule:evenodd;stroke:none"
           id="path429" />
        <path
           d="m 423.157,466.133 h 27.228 v 0.65 h -27.228 z"
           style="fill:#e0cc7b;fill-opacity:1;fill-rule:evenodd;stroke:none"
           id="path431" />
        <g
           id="g433"
           transform="translate(527.0205,379.7949)">
          <path
             d="M 0,0 C -15.101,-36.26 -40.548,-43.807 -67.919,-46.018 -55.257,-18.221 -34.168,-0.946 0,0"
             style="fill:#93c44b;fill-opacity:1;fill-rule:evenodd;stroke:none"
             id="path435" />
        </g>
        <g
           id="g437"
           transform="translate(527.0205,379.7949)">
          <path
             d="m 0,0 c -7.402,-17.775 -17.292,-28.646 -28.675,-35.376 -9.028,-3.329 -18.714,-4.838 -28.653,-5.64 7.21,15.829 17.155,28.243 30.689,36.175 C -18.791,-1.939 -9.951,-0.275 0,0"
             style="fill:#9ccc54;fill-opacity:1;fill-rule:evenodd;stroke:none"
             id="path439" />
        </g>
        <g
           id="g441"
           transform="translate(523.3945,375.4736)">
          <path
             d="M 0,0 C -6.334,-15.21 -17.009,-18.376 -28.49,-19.302 -23.179,-7.643 -14.333,-0.397 0,0"
             style="fill:#a9d665;fill-opacity:1;fill-rule:evenodd;stroke:none"
             id="path443" />
        </g>
        <g
           id="g445"
           transform="translate(527.0205,279.2422)">
          <path
             d="M 0,0 C -15.101,36.26 -40.548,43.807 -67.919,46.016 -55.257,18.221 -34.168,0.945 0,0"
             style="fill:#93c44b;fill-opacity:1;fill-rule:evenodd;stroke:none"
             id="path447" />
        </g>
        <g
           id="g449"
           transform="translate(527.0205,279.2422)">
          <path
             d="m 0,0 c -7.402,17.773 -17.292,28.647 -28.675,35.375 -9.028,3.33 -18.714,4.838 -28.653,5.641 C -50.118,25.187 -40.173,12.773 -26.639,4.84 -18.791,1.937 -9.951,0.275 0,0"
             style="fill:#9ccc54;fill-opacity:1;fill-rule:evenodd;stroke:none"
             id="path451" />
        </g>
        <g
           id="g453"
           transform="translate(523.3945,283.5625)">
          <path
             d="M 0,0 C -6.334,15.209 -17.009,18.375 -28.49,19.303 -23.179,7.643 -14.333,0.397 0,0"
             style="fill:#a9d665;fill-opacity:1;fill-rule:evenodd;stroke:none"
             id="path455" />
        </g>
        <g
           id="g457"
           transform="translate(421.6914,553.9829)">
          <path
             d="m 0,0 h 30.159 c -1.976,-3.484 -2.891,-6.893 -2.891,-10.901 v -65.397 c 0,-4.009 0.915,-7.417 2.891,-10.902 H 0 c 1.976,3.485 2.891,6.893 2.891,10.902 v 65.397 C 2.891,-6.893 1.976,-3.484 0,0"
             style="fill:#9ccc54;fill-opacity:1;fill-rule:evenodd;stroke:none"
             id="path459" />
        </g>
        <g
           id="g461"
           transform="translate(440.8633,553.9829)">
          <path
             d="M 0,0 H 10.987 C 9.011,-3.484 8.096,-6.893 8.096,-10.901 v -65.397 c 0,-4.009 0.915,-7.417 2.891,-10.902 H -13.05 c 16.073,1.148 15.942,6.893 15.942,10.902 v 65.397 C 2.892,-6.893 1.977,-3.484 0,0"
             style="fill:#93c44b;fill-opacity:1;fill-rule:evenodd;stroke:none"
             id="path463" />
        </g>
        <g
           id="g465"
           transform="translate(432.2109,533.9277)">
          <path
             d="m 0,0 v 0 c 3.013,0 5.479,2.465 5.479,5.478 v 0 c 0,3.013 -2.466,5.478 -5.479,5.478 -3.013,0 -5.477,-2.465 -5.477,-5.478 v 0 C -5.477,2.465 -3.013,0 0,0 m 0,-2.497 v 0 c 3.013,0 5.479,-2.465 5.479,-5.478 v -46.4 c 0,-3.014 -2.466,-5.478 -5.479,-5.478 -3.013,0 -5.477,2.464 -5.477,5.478 v 46.4 c 0,3.013 2.464,5.478 5.477,5.478"
             style="fill:#a9d665;fill-opacity:1;fill-rule:evenodd;stroke:none"
             id="path467" />
        </g>
        <path
           d="m 423.157,553.983 h 27.228 v 2.523 h -27.228 z"
           style="fill:#ebd788;fill-opacity:1;fill-rule:evenodd;stroke:none"
           id="path469" />
        <path
           d="m 423.157,553.983 h 27.228 v 0.649 h -27.228 z"
           style="fill:#e0cc7b;fill-opacity:1;fill-rule:evenodd;stroke:none"
           id="path471" />
        <path
           d="m 423.157,555.856 h 27.228 v 0.65 h -27.228 z"
           style="fill:#e0cc7b;fill-opacity:1;fill-rule:evenodd;stroke:none"
           id="path473" />
        <g
           id="g475"
           transform="translate(351.2441,467.7285)">
          <path
             d="M 0,0 C 15.1,-36.26 40.548,-43.807 67.919,-46.017 55.257,-18.221 34.168,-0.945 0,0"
             style="fill:#93c44b;fill-opacity:1;fill-rule:evenodd;stroke:none"
             id="path477" />
        </g>
        <g
           id="g479"
           transform="translate(351.2441,467.7285)">
          <path
             d="m 0,0 c 7.402,-17.773 17.292,-28.646 28.674,-35.375 9.029,-3.33 18.715,-4.838 28.654,-5.641 -7.21,15.829 -17.155,28.243 -30.69,36.176 C 18.791,-1.937 9.951,-0.275 0,0"
             style="fill:#9ccc54;fill-opacity:1;fill-rule:evenodd;stroke:none"
             id="path481" />
        </g>
        <g
           id="g483"
           transform="translate(354.8701,463.4082)">
          <path
             d="M 0,0 C 6.334,-15.21 17.009,-18.375 28.489,-19.303 23.179,-7.643 14.332,-0.397 0,0"
             style="fill:#a9d665;fill-opacity:1;fill-rule:evenodd;stroke:none"
             id="path485" />
        </g>
        <g
           id="g487"
           transform="translate(351.2441,367.1758)">
          <path
             d="M 0,0 C 15.1,36.26 40.548,43.807 67.919,46.018 55.257,18.221 34.168,0.946 0,0"
             style="fill:#93c44b;fill-opacity:1;fill-rule:evenodd;stroke:none"
             id="path489" />
        </g>
        <g
           id="g491"
           transform="translate(351.2441,367.1758)">
          <path
             d="m 0,0 c 7.402,17.775 17.292,28.646 28.674,35.375 9.029,3.33 18.715,4.838 28.654,5.641 C 50.118,25.187 40.173,12.773 26.638,4.841 18.791,1.938 9.951,0.275 0,0"
             style="fill:#9ccc54;fill-opacity:1;fill-rule:evenodd;stroke:none"
             id="path493" />
        </g>
        <g
           id="g495"
           transform="translate(354.8701,371.4961)">
          <path
             d="M 0,0 C 6.334,15.21 17.009,18.376 28.489,19.303 23.179,7.643 14.332,0.397 0,0"
             style="fill:#a9d665;fill-opacity:1;fill-rule:evenodd;stroke:none"
             id="path497" />
        </g>
        <g
           id="g499"
           transform="translate(167.7646,195.2227)">
          <path
             d="m 0,0 h 30.159 c -1.976,-3.484 -2.891,-6.894 -2.891,-10.901 v -65.398 c 0,-4.008 0.915,-7.418 2.891,-10.901 L 0,-87.2 c 1.976,3.483 2.891,6.893 2.891,10.901 v 65.398 C 2.891,-6.894 1.976,-3.484 0,0"
             style="fill:#bbe67a;fill-opacity:1;fill-rule:evenodd;stroke:none"
             id="path501" />
        </g>
        <g
           id="g503"
           transform="translate(186.8721,195.2227)">
          <path
             d="M 0,0 H 10.986 C 9.011,-3.484 8.096,-6.894 8.096,-10.901 v -65.398 c 0,-4.008 0.915,-7.418 2.89,-10.901 h -24.037 c 16.074,1.147 15.942,6.893 15.942,10.901 v 65.398 C 2.891,-6.894 1.977,-3.484 0,0"
             style="fill:#a9d665;fill-opacity:1;fill-rule:evenodd;stroke:none"
             id="path505" />
        </g>
        <g
           id="g507"
           transform="translate(178.2842,175.167)">
          <path
             d="m 0,0 v 0 c 3.013,0 5.479,2.465 5.479,5.477 0,3.014 -2.466,5.479 -5.479,5.479 -3.014,0 -5.478,-2.465 -5.478,-5.479 C -5.478,2.465 -3.014,0 0,0 m 0,-2.497 v 0 c 3.013,0 5.479,-2.465 5.479,-5.478 v -46.4 c 0,-3.013 -2.466,-5.478 -5.479,-5.478 -3.014,0 -5.478,2.465 -5.478,5.478 v 46.4 c 0,3.013 2.464,5.478 5.478,5.478"
             style="fill:#c9ed93;fill-opacity:1;fill-rule:evenodd;stroke:none"
             id="path509" />
        </g>
        <path
           d="m 169.229,195.222 h 27.229 v 2.522 h -27.229 z"
           style="fill:#ebd788;fill-opacity:1;fill-rule:evenodd;stroke:none"
           id="path511" />
        <path
           d="m 169.229,195.222 h 27.229 v 0.65 h -27.229 z"
           style="fill:#e0cc7b;fill-opacity:1;fill-rule:evenodd;stroke:none"
           id="path513" />
        <path
           d="m 169.229,197.095 h 27.229 v 0.649 h -27.229 z"
           style="fill:#e0cc7b;fill-opacity:1;fill-rule:evenodd;stroke:none"
           id="path515" />
        <g
           id="g517"
           transform="translate(167.7646,284.9443)">
          <path
             d="m 0,0 h 30.159 c -1.976,-3.483 -2.891,-6.893 -2.891,-10.901 v -65.397 c 0,-4.008 0.915,-7.418 2.891,-10.902 H 0 c 1.976,3.484 2.891,6.894 2.891,10.902 v 65.397 C 2.891,-6.893 1.976,-3.483 0,0"
             style="fill:#bbe67a;fill-opacity:1;fill-rule:evenodd;stroke:none"
             id="path519" />
        </g>
        <g
           id="g521"
           transform="translate(186.8721,284.9443)">
          <path
             d="M 0,0 H 10.986 C 9.011,-3.483 8.096,-6.893 8.096,-10.901 v -65.397 c 0,-4.008 0.915,-7.418 2.89,-10.902 h -24.037 c 16.074,1.148 15.942,6.894 15.942,10.902 v 65.397 C 2.891,-6.893 1.977,-3.483 0,0"
             style="fill:#a9d665;fill-opacity:1;fill-rule:evenodd;stroke:none"
             id="path523" />
        </g>
        <g
           id="g525"
           transform="translate(178.2842,264.8896)">
          <path
             d="M 0,0 V 0 C 3.013,0 5.479,2.464 5.479,5.478 5.479,8.49 3.013,10.956 0,10.956 -3.014,10.956 -5.478,8.49 -5.478,5.478 -5.478,2.464 -3.014,0 0,0 m 0,-2.497 v 0 c 3.013,0 5.479,-2.465 5.479,-5.478 v -46.401 c 0,-3.013 -2.466,-5.477 -5.479,-5.477 -3.014,0 -5.478,2.464 -5.478,5.477 v 46.401 c 0,3.013 2.464,5.478 5.478,5.478"
             style="fill:#c9ed93;fill-opacity:1;fill-rule:evenodd;stroke:none"
             id="path527" />
        </g>
        <path
           d="m 169.229,284.944 h 27.229 v 2.522 h -27.229 z"
           style="fill:#ebd788;fill-opacity:1;fill-rule:evenodd;stroke:none"
           id="path529" />
        <path
           d="m 169.229,284.944 h 27.229 v 0.649 h -27.229 z"
           style="fill:#e0cc7b;fill-opacity:1;fill-rule:evenodd;stroke:none"
           id="path531" />
        <path
           d="m 169.229,286.817 h 27.229 v 0.649 h -27.229 z"
           style="fill:#e0cc7b;fill-opacity:1;fill-rule:evenodd;stroke:none"
           id="path533" />
        <g
           id="g535"
           transform="translate(167.7646,374.5381)">
          <path
             d="m 0,0 h 30.159 c -1.976,-3.483 -2.891,-6.894 -2.891,-10.901 v -65.397 c 0,-4.008 0.915,-7.418 2.891,-10.902 H 0 c 1.976,3.484 2.891,6.894 2.891,10.902 v 65.397 C 2.891,-6.894 1.976,-3.483 0,0"
             style="fill:#bbe67a;fill-opacity:1;fill-rule:evenodd;stroke:none"
             id="path537" />
        </g>
        <g
           id="g539"
           transform="translate(186.9365,374.5381)">
          <path
             d="M 0,0 H 10.987 C 9.011,-3.483 8.096,-6.894 8.096,-10.901 v -65.397 c 0,-4.008 0.915,-7.418 2.891,-10.902 h -24.038 c 16.075,1.148 15.942,6.894 15.942,10.902 v 65.397 C 2.891,-6.894 1.977,-3.483 0,0"
             style="fill:#a9d665;fill-opacity:1;fill-rule:evenodd;stroke:none"
             id="path541" />
        </g>
        <g
           id="g543"
           transform="translate(178.2842,354.4824)">
          <path
             d="m 0,0 v 0 c 3.013,0 5.479,2.465 5.479,5.479 0,3.012 -2.466,5.478 -5.479,5.478 -3.014,0 -5.478,-2.466 -5.478,-5.478 C -5.478,2.465 -3.014,0 0,0 m 0,-2.496 v 0 c 3.013,0 5.479,-2.465 5.479,-5.479 v -46.4 c 0,-3.012 -2.466,-5.477 -5.479,-5.477 -3.014,0 -5.478,2.465 -5.478,5.477 v 46.4 c 0,3.014 2.464,5.479 5.478,5.479"
             style="fill:#c9ed93;fill-opacity:1;fill-rule:evenodd;stroke:none"
             id="path545" />
        </g>
        <path
           d="m 169.229,374.538 h 27.229 v 2.522 h -27.229 z"
           style="fill:#ebd788;fill-opacity:1;fill-rule:evenodd;stroke:none"
           id="path547" />
        <path
           d="m 169.229,374.538 h 27.229 v 0.649 h -27.229 z"
           style="fill:#e0cc7b;fill-opacity:1;fill-rule:evenodd;stroke:none"
           id="path549" />
        <path
           d="m 169.229,376.411 h 27.229 v 0.649 h -27.229 z"
           style="fill:#e0cc7b;fill-opacity:1;fill-rule:evenodd;stroke:none"
           id="path551" />
        <g
           id="g553"
           transform="translate(167.7646,464.2607)">
          <path
             d="m 0,0 h 30.159 c -1.976,-3.483 -2.891,-6.894 -2.891,-10.901 v -65.398 c 0,-4.008 0.915,-7.417 2.891,-10.901 L 0,-87.2 c 1.976,3.484 2.891,6.893 2.891,10.901 v 65.398 C 2.891,-6.894 1.976,-3.483 0,0"
             style="fill:#bbe67a;fill-opacity:1;fill-rule:evenodd;stroke:none"
             id="path555" />
        </g>
        <g
           id="g557"
           transform="translate(186.9365,464.2607)">
          <path
             d="M 0,0 H 10.987 C 9.011,-3.483 8.096,-6.894 8.096,-10.901 v -65.398 c 0,-4.008 0.915,-7.417 2.891,-10.901 h -24.038 c 16.075,1.148 15.942,6.893 15.942,10.901 v 65.398 C 2.891,-6.894 1.977,-3.483 0,0"
             style="fill:#a9d665;fill-opacity:1;fill-rule:evenodd;stroke:none"
             id="path559" />
        </g>
        <g
           id="g561"
           transform="translate(178.2842,444.2051)">
          <path
             d="m 0,0 v 0 c 3.013,0 5.479,2.465 5.479,5.478 0,3.013 -2.466,5.478 -5.479,5.478 -3.014,0 -5.478,-2.465 -5.478,-5.478 C -5.478,2.465 -3.014,0 0,0 m 0,-2.497 v 0 c 3.013,0 5.479,-2.465 5.479,-5.478 v -46.4 c 0,-3.013 -2.466,-5.479 -5.479,-5.479 -3.014,0 -5.478,2.466 -5.478,5.479 v 46.4 c 0,3.013 2.464,5.478 5.478,5.478"
             style="fill:#c9ed93;fill-opacity:1;fill-rule:evenodd;stroke:none"
             id="path563" />
        </g>
        <path
           d="m 169.229,464.261 h 27.229 v 2.522 h -27.229 z"
           style="fill:#ebd788;fill-opacity:1;fill-rule:evenodd;stroke:none"
           id="path565" />
        <path
           d="m 169.229,464.261 h 27.229 v 0.649 h -27.229 z"
           style="fill:#e0cc7b;fill-opacity:1;fill-rule:evenodd;stroke:none"
           id="path567" />
        <path
           d="m 169.229,466.133 h 27.229 v 0.65 h -27.229 z"
           style="fill:#e0cc7b;fill-opacity:1;fill-rule:evenodd;stroke:none"
           id="path569" />
        <g
           id="g571"
           transform="translate(249.7744,256.54)">
          <path
             d="M 0,0 C -10.682,-25.65 -28.684,-30.989 -48.046,-32.552 -39.088,-12.89 -24.17,-0.669 0,0"
             style="fill:#93c44b;fill-opacity:1;fill-rule:evenodd;stroke:none"
             id="path573" />
        </g>
        <g
           id="g575"
           transform="translate(249.7744,256.54)">
          <path
             d="m 0,0 c -5.236,-12.573 -12.232,-20.265 -20.284,-25.024 -6.388,-2.356 -13.238,-3.423 -20.27,-3.991 5.101,11.198 12.136,19.979 21.71,25.59 C -13.293,-1.372 -7.039,-0.194 0,0"
             style="fill:#9ccc54;fill-opacity:1;fill-rule:evenodd;stroke:none"
             id="path577" />
        </g>
        <g
           id="g579"
           transform="translate(247.21,253.4844)">
          <path
             d="M 0,0 C -4.481,-10.76 -12.032,-13 -20.154,-13.655 -16.397,-5.407 -10.139,-0.281 0,0"
             style="fill:#a9d665;fill-opacity:1;fill-rule:evenodd;stroke:none"
             id="path581" />
        </g>
        <g
           id="g583"
           transform="translate(249.7744,174.4717)">
          <path
             d="M 0,0 C -10.682,25.65 -28.684,30.989 -48.046,32.552 -39.088,12.89 -24.17,0.669 0,0"
             style="fill:#93c44b;fill-opacity:1;fill-rule:evenodd;stroke:none"
             id="path585" />
        </g>
        <g
           id="g587"
           transform="translate(249.7744,174.4717)">
          <path
             d="m 0,0 c -5.236,12.573 -12.232,20.265 -20.284,25.024 -6.388,2.356 -13.238,3.422 -20.27,3.991 C -35.453,17.817 -28.418,9.036 -18.844,3.424 -13.293,1.371 -7.039,0.194 0,0"
             style="fill:#9ccc54;fill-opacity:1;fill-rule:evenodd;stroke:none"
             id="path589" />
        </g>
        <g
           id="g591"
           transform="translate(247.21,177.5283)">
          <path
             d="M 0,0 C -4.481,10.759 -12.032,12.998 -20.154,13.654 -16.397,5.406 -10.139,0.28 0,0"
             style="fill:#a9d665;fill-opacity:1;fill-rule:evenodd;stroke:none"
             id="path593" />
        </g>
        <g
           id="g595"
           transform="translate(274.6396,215.2373)">
          <path
             d="M 0,0 C -26.972,-17.698 -47.752,-11.106 -67.38,0 -45.965,13.066 -23.668,15.098 0,0"
             style="fill:#93c44b;fill-opacity:1;fill-rule:evenodd;stroke:none"
             id="path597" />
        </g>
        <g
           id="g599"
           transform="translate(274.6396,215.2373)">
          <path
             d="m 0,0 c -13.222,-8.676 -24.955,-11.512 -35.794,-10.844 -7.673,1.896 -14.953,5.332 -22.081,9.365 C -45.681,5.962 -33.2,9.821 -20.343,8.98 -13.67,7.339 -6.893,4.397 0,0"
             style="fill:#9ccc54;fill-opacity:1;fill-rule:evenodd;stroke:none"
             id="path601" />
        </g>
        <g
           id="g603"
           transform="translate(270.1836,213.9697)">
          <path
             d="M 0,0 C -11.314,-7.424 -20.03,-4.658 -28.264,0 -19.28,5.48 -9.929,6.333 0,0"
             style="fill:#a9d665;fill-opacity:1;fill-rule:evenodd;stroke:none"
             id="path605" />
        </g>
        <g
           id="g607"
           transform="translate(108.3408,288.9092)">
          <path
             d="M 0,0 C 12.084,-29.017 32.449,-35.057 54.352,-36.825 44.219,-14.581 27.343,-0.757 0,0"
             style="fill:#93c44b;fill-opacity:1;fill-rule:evenodd;stroke:none"
             id="path609" />
        </g>
        <g
           id="g611"
           transform="translate(108.3408,288.9092)">
          <path
             d="m 0,0 c 5.924,-14.225 13.838,-22.925 22.947,-28.31 7.225,-2.664 14.976,-3.871 22.93,-4.513 -5.771,12.667 -13.729,22.601 -24.56,28.949 C 15.037,-1.552 7.963,-0.221 0,0"
             style="fill:#9ccc54;fill-opacity:1;fill-rule:evenodd;stroke:none"
             id="path613" />
        </g>
        <g
           id="g615"
           transform="translate(111.2427,285.4512)">
          <path
             d="M 0,0 C 5.068,-12.172 13.611,-14.705 22.799,-15.447 18.548,-6.116 11.469,-0.317 0,0"
             style="fill:#a9d665;fill-opacity:1;fill-rule:evenodd;stroke:none"
             id="path617" />
        </g>
        <g
           id="g619"
           transform="translate(108.3408,208.4414)">
          <path
             d="M 0,0 C 12.084,29.018 32.449,35.057 54.352,36.824 44.219,14.581 27.343,0.757 0,0"
             style="fill:#93c44b;fill-opacity:1;fill-rule:evenodd;stroke:none"
             id="path621" />
        </g>
        <g
           id="g623"
           transform="translate(108.3408,208.4414)">
          <path
             d="m 0,0 c 5.924,14.225 13.838,22.925 22.947,28.31 7.225,2.664 14.976,3.871 22.93,4.513 C 40.106,20.156 32.148,10.222 21.317,3.874 15.037,1.552 7.963,0.221 0,0"
             style="fill:#9ccc54;fill-opacity:1;fill-rule:evenodd;stroke:none"
             id="path625" />
        </g>
        <g
           id="g627"
           transform="translate(111.2427,211.8984)">
          <path
             d="M 0,0 C 5.068,12.172 13.611,14.706 22.799,15.447 18.548,6.117 11.469,0.318 0,0"
             style="fill:#a9d665;fill-opacity:1;fill-rule:evenodd;stroke:none"
             id="path629" />
        </g>
        <g
           id="g631"
           transform="translate(167.7646,553.9829)">
          <path
             d="m 0,0 h 30.159 c -1.976,-3.484 -2.891,-6.893 -2.891,-10.901 v -65.397 c 0,-4.009 0.915,-7.417 2.891,-10.902 H 0 c 1.976,3.485 2.891,6.893 2.891,10.902 v 65.397 C 2.891,-6.893 1.976,-3.484 0,0"
             style="fill:#bbe67a;fill-opacity:1;fill-rule:evenodd;stroke:none"
             id="path633" />
        </g>
        <g
           id="g635"
           transform="translate(186.9365,553.9829)">
          <path
             d="M 0,0 H 10.987 C 9.011,-3.484 8.096,-6.893 8.096,-10.901 v -65.397 c 0,-4.009 0.915,-7.417 2.891,-10.902 h -24.038 c 16.075,1.148 15.942,6.893 15.942,10.902 v 65.397 C 2.891,-6.893 1.977,-3.484 0,0"
             style="fill:#a9d665;fill-opacity:1;fill-rule:evenodd;stroke:none"
             id="path637" />
        </g>
        <g
           id="g639"
           transform="translate(178.2842,533.9277)">
          <path
             d="m 0,0 v 0 c 3.013,0 5.479,2.465 5.479,5.478 v 0 c 0,3.012 -2.466,5.478 -5.479,5.478 -3.014,0 -5.478,-2.466 -5.478,-5.478 v 0 C -5.478,2.465 -3.014,0 0,0 m 0,-2.497 v 0 c 3.013,0 5.479,-2.465 5.479,-5.478 v -46.4 c 0,-3.013 -2.466,-5.478 -5.479,-5.478 -3.014,0 -5.478,2.465 -5.478,5.478 v 46.4 c 0,3.013 2.464,5.478 5.478,5.478"
             style="fill:#c9ed93;fill-opacity:1;fill-rule:evenodd;stroke:none"
             id="path641" />
        </g>
        <path
           d="m 169.229,553.983 h 27.229 v 2.523 h -27.229 z"
           style="fill:#ebd788;fill-opacity:1;fill-rule:evenodd;stroke:none"
           id="path643" />
        <path
           d="m 169.229,553.983 h 27.229 v 0.649 h -27.229 z"
           style="fill:#e0cc7b;fill-opacity:1;fill-rule:evenodd;stroke:none"
           id="path645" />
        <path
           d="m 169.229,555.856 h 27.229 v 0.65 h -27.229 z"
           style="fill:#e0cc7b;fill-opacity:1;fill-rule:evenodd;stroke:none"
           id="path647" />
        <g
           id="g649"
           transform="translate(110.8843,447.6436)">
          <path
             d="M 0,0 C 12.083,-29.018 32.449,-35.057 54.352,-36.825 44.218,-14.581 27.343,-0.757 0,0"
             style="fill:#93c44b;fill-opacity:1;fill-rule:evenodd;stroke:none"
             id="path651" />
        </g>
        <g
           id="g653"
           transform="translate(110.8843,447.6436)">
          <path
             d="m 0,0 c 5.923,-14.225 13.837,-22.925 22.947,-28.31 7.224,-2.664 14.975,-3.871 22.929,-4.513 C 40.107,-20.157 32.148,-10.222 21.317,-3.874 15.038,-1.552 7.963,-0.221 0,0"
             style="fill:#9ccc54;fill-opacity:1;fill-rule:evenodd;stroke:none"
             id="path655" />
        </g>
        <g
           id="g657"
           transform="translate(113.7852,444.1855)">
          <path
             d="M 0,0 C 5.069,-12.172 13.612,-14.705 22.8,-15.447 18.549,-6.116 11.47,-0.317 0,0"
             style="fill:#a9d665;fill-opacity:1;fill-rule:evenodd;stroke:none"
             id="path659" />
        </g>
        <g
           id="g661"
           transform="translate(110.8843,367.1758)">
          <path
             d="M 0,0 C 12.083,29.018 32.449,35.057 54.352,36.825 44.218,14.581 27.343,0.757 0,0"
             style="fill:#93c44b;fill-opacity:1;fill-rule:evenodd;stroke:none"
             id="path663" />
        </g>
        <g
           id="g665"
           transform="translate(110.8843,367.1758)">
          <path
             d="m 0,0 c 5.923,14.225 13.837,22.925 22.947,28.309 7.224,2.665 14.975,3.872 22.929,4.513 C 40.107,20.156 32.148,10.222 21.317,3.874 15.038,1.552 7.963,0.221 0,0"
             style="fill:#9ccc54;fill-opacity:1;fill-rule:evenodd;stroke:none"
             id="path667" />
        </g>
        <g
           id="g669"
           transform="translate(113.7852,370.6328)">
          <path
             d="M 0,0 C 5.069,12.172 13.612,14.705 22.8,15.447 18.549,6.117 11.47,0.318 0,0"
             style="fill:#a9d665;fill-opacity:1;fill-rule:evenodd;stroke:none"
             id="path671" />
        </g>
        <g
           id="g673"
           transform="translate(296.0479,217.0303)">
          <path
             d="m 0,0 h 37.702 c -2.47,-4.355 -3.614,-8.618 -3.614,-13.628 V -95.38 c 0,-5.011 1.144,-9.272 3.614,-13.628 H 0 c 2.471,4.356 3.614,8.617 3.614,13.628 v 81.752 C 3.614,-8.618 2.471,-4.355 0,0"
             style="fill:#86b83b;fill-opacity:1;fill-rule:evenodd;stroke:none"
             id="path675" />
        </g>
        <g
           id="g677"
           transform="translate(319.9346,217.0303)">
          <path
             d="M 0,0 H 13.734 C 11.265,-4.355 10.121,-8.618 10.121,-13.628 V -95.38 c 0,-5.011 1.144,-9.272 3.613,-13.628 h -30.048 c 20.093,1.435 19.928,8.617 19.928,13.628 v 81.752 C 3.614,-8.618 2.471,-4.355 0,0"
             style="fill:#78ab2b;fill-opacity:1;fill-rule:evenodd;stroke:none"
             id="path679" />
        </g>
        <g
           id="g681"
           transform="translate(309.1992,191.959)">
          <path
             d="m 0,0 v 0 c 3.767,0 6.848,3.082 6.848,6.848 0,3.766 -3.081,6.847 -6.848,6.847 -3.767,0 -6.848,-3.081 -6.848,-6.847 C -6.848,3.082 -3.767,0 0,0 m 0,-3.122 v 0 c 3.767,0 6.848,-3.081 6.848,-6.848 v -58.004 c 0,-3.766 -3.081,-6.847 -6.848,-6.847 -3.767,0 -6.848,3.081 -6.848,6.847 V -9.97 c 0,3.767 3.081,6.848 6.848,6.848"
             style="fill:#9ccc54;fill-opacity:1;fill-rule:evenodd;stroke:none"
             id="path683" />
        </g>
        <path
           d="m 297.881,217.029 h 34.037 v 3.154 h -34.037 z"
           style="fill:#ebd788;fill-opacity:1;fill-rule:evenodd;stroke:none"
           id="path685" />
        <path
           d="m 297.881,217.029 h 34.037 v 0.812 h -34.037 z"
           style="fill:#e0cc7b;fill-opacity:1;fill-rule:evenodd;stroke:none"
           id="path687" />
        <path
           d="m 297.881,219.371 h 34.037 v 0.812 h -34.037 z"
           style="fill:#e0cc7b;fill-opacity:1;fill-rule:evenodd;stroke:none"
           id="path689" />
        <g
           id="g691"
           transform="translate(296.0479,329.1914)">
          <path
             d="m 0,0 h 37.702 c -2.47,-4.355 -3.614,-8.617 -3.614,-13.628 v -81.753 c 0,-5.01 1.144,-9.272 3.614,-13.627 H 0 c 2.471,4.355 3.614,8.617 3.614,13.627 v 81.753 C 3.614,-8.617 2.471,-4.355 0,0"
             style="fill:#86b83b;fill-opacity:1;fill-rule:evenodd;stroke:none"
             id="path693" />
        </g>
        <g
           id="g695"
           transform="translate(319.9346,329.1914)">
          <path
             d="m 0,0 h 13.734 c -2.469,-4.355 -3.613,-8.617 -3.613,-13.628 v -81.753 c 0,-5.01 1.144,-9.272 3.613,-13.627 h -30.048 c 20.093,1.435 19.928,8.617 19.928,13.627 v 81.753 C 3.614,-8.617 2.471,-4.355 0,0"
             style="fill:#78ab2b;fill-opacity:1;fill-rule:evenodd;stroke:none"
             id="path697" />
        </g>
        <g
           id="g699"
           transform="translate(309.1992,304.1201)">
          <path
             d="m 0,0 v 0 c 3.767,0 6.848,3.081 6.848,6.848 0,3.766 -3.081,6.848 -6.848,6.848 -3.767,0 -6.848,-3.082 -6.848,-6.848 C -6.848,3.081 -3.767,0 0,0 m 0,-3.122 v 0 c 3.767,0 6.848,-3.081 6.848,-6.848 v -58.004 c 0,-3.766 -3.081,-6.847 -6.848,-6.847 -3.767,0 -6.848,3.081 -6.848,6.847 V -9.97 c 0,3.767 3.081,6.848 6.848,6.848"
             style="fill:#9ccc54;fill-opacity:1;fill-rule:evenodd;stroke:none"
             id="path701" />
        </g>
        <path
           d="m 297.881,329.191 h 34.037 v 3.152 h -34.037 z"
           style="fill:#ebd788;fill-opacity:1;fill-rule:evenodd;stroke:none"
           id="path703" />
        <path
           d="m 297.881,329.191 h 34.037 v 0.811 h -34.037 z"
           style="fill:#e0cc7b;fill-opacity:1;fill-rule:evenodd;stroke:none"
           id="path705" />
        <path
           d="m 297.881,331.532 h 34.037 v 0.811 h -34.037 z"
           style="fill:#e0cc7b;fill-opacity:1;fill-rule:evenodd;stroke:none"
           id="path707" />
        <g
           id="g709"
           transform="translate(296.0479,441.1914)">
          <path
             d="m 0,0 h 37.702 c -2.47,-4.355 -3.614,-8.617 -3.614,-13.628 v -81.753 c 0,-5.01 1.144,-9.271 3.614,-13.627 H 0 c 2.471,4.356 3.614,8.617 3.614,13.627 v 81.753 C 3.614,-8.617 2.471,-4.355 0,0"
             style="fill:#86b83b;fill-opacity:1;fill-rule:evenodd;stroke:none"
             id="path711" />
        </g>
        <g
           id="g713"
           transform="translate(320.0156,441.1914)">
          <path
             d="M 0,0 H 13.734 C 11.265,-4.355 10.12,-8.617 10.12,-13.628 v -81.753 c 0,-5.01 1.145,-9.271 3.614,-13.627 h -30.048 c 20.093,1.436 19.928,8.617 19.928,13.627 v 81.753 C 3.614,-8.617 2.471,-4.355 0,0"
             style="fill:#78ab2b;fill-opacity:1;fill-rule:evenodd;stroke:none"
             id="path715" />
        </g>
        <g
           id="g717"
           transform="translate(309.1992,416.1201)">
          <path
             d="m 0,0 v 0 c 3.767,0 6.848,3.082 6.848,6.848 v 0.001 c 0,3.765 -3.081,6.847 -6.848,6.847 -3.767,0 -6.848,-3.082 -6.848,-6.847 V 6.848 C -6.848,3.082 -3.767,0 0,0 m 0,-3.122 v 0 c 3.767,0 6.848,-3.08 6.848,-6.848 v -58.004 c 0,-3.765 -3.081,-6.847 -6.848,-6.847 -3.767,0 -6.848,3.082 -6.848,6.847 V -9.97 c 0,3.768 3.081,6.848 6.848,6.848"
             style="fill:#9ccc54;fill-opacity:1;fill-rule:evenodd;stroke:none"
             id="path719" />
        </g>
        <path
           d="m 297.881,441.191 h 34.037 v 3.153 h -34.037 z"
           style="fill:#ebd788;fill-opacity:1;fill-rule:evenodd;stroke:none"
           id="path721" />
        <path
           d="m 297.881,441.191 h 34.037 v 0.812 h -34.037 z"
           style="fill:#e0cc7b;fill-opacity:1;fill-rule:evenodd;stroke:none"
           id="path723" />
        <path
           d="m 297.881,443.533 h 34.037 v 0.811 h -34.037 z"
           style="fill:#e0cc7b;fill-opacity:1;fill-rule:evenodd;stroke:none"
           id="path725" />
        <g
           id="g727"
           transform="translate(296.0479,553.3521)">
          <path
             d="m 0,0 h 37.702 c -2.47,-4.355 -3.614,-8.617 -3.614,-13.628 v -81.751 c 0,-5.011 1.144,-9.274 3.614,-13.628 H 0 c 2.471,4.354 3.614,8.617 3.614,13.628 v 81.751 C 3.614,-8.617 2.471,-4.355 0,0"
             style="fill:#86b83b;fill-opacity:1;fill-rule:evenodd;stroke:none"
             id="path729" />
        </g>
        <g
           id="g731"
           transform="translate(320.0156,553.3521)">
          <path
             d="M 0,0 H 13.734 C 11.265,-4.355 10.12,-8.617 10.12,-13.628 v -81.751 c 0,-5.011 1.145,-9.274 3.614,-13.628 h -30.048 c 20.093,1.434 19.928,8.617 19.928,13.628 v 81.751 C 3.614,-8.617 2.471,-4.355 0,0"
             style="fill:#78ab2b;fill-opacity:1;fill-rule:evenodd;stroke:none"
             id="path733" />
        </g>
        <g
           id="g735"
           transform="translate(309.1992,528.2812)">
          <path
             d="m 0,0 v 0 c 3.767,0 6.848,3.082 6.848,6.848 v 0 c 0,3.766 -3.081,6.848 -6.848,6.848 -3.767,0 -6.848,-3.082 -6.848,-6.848 v 0 C -6.848,3.082 -3.767,0 0,0 m 0,-3.121 v 0 c 3.767,0 6.848,-3.082 6.848,-6.848 v -58.006 c 0,-3.765 -3.081,-6.846 -6.848,-6.846 -3.767,0 -6.848,3.081 -6.848,6.846 v 58.006 c 0,3.766 3.081,6.848 6.848,6.848"
             style="fill:#9ccc54;fill-opacity:1;fill-rule:evenodd;stroke:none"
             id="path737" />
        </g>
        <path
           d="m 297.881,553.352 h 34.037 v 3.154 h -34.037 z"
           style="fill:#ebd788;fill-opacity:1;fill-rule:evenodd;stroke:none"
           id="path739" />
        <path
           d="m 297.881,553.352 h 34.037 v 0.812 h -34.037 z"
           style="fill:#e0cc7b;fill-opacity:1;fill-rule:evenodd;stroke:none"
           id="path741" />
        <path
           d="m 297.881,555.693 h 34.037 v 0.812 h -34.037 z"
           style="fill:#e0cc7b;fill-opacity:1;fill-rule:evenodd;stroke:none"
           id="path743" />
        <g
           id="g745"
           transform="translate(205.5674,427.3047)">
          <path
             d="M 0,0 C 18.876,-45.327 50.688,-54.762 84.904,-57.524 69.076,-22.777 42.713,-1.182 0,0"
             style="fill:#78ab2b;fill-opacity:1;fill-rule:evenodd;stroke:none"
             id="path747" />
        </g>
        <g
           id="g749"
           transform="translate(205.5674,427.3047)">
          <path
             d="m 0,0 c 9.253,-22.219 21.615,-35.811 35.845,-44.222 11.288,-4.163 23.394,-6.048 35.82,-7.051 C 62.65,-31.486 50.219,-15.967 33.3,-6.051 23.49,-2.423 12.439,-0.344 0,0"
             style="fill:#86b83b;fill-opacity:1;fill-rule:evenodd;stroke:none"
             id="path751" />
        </g>
        <g
           id="g753"
           transform="translate(210.0986,421.9043)">
          <path
             d="M 0,0 C 7.919,-19.014 21.264,-22.972 35.615,-24.13 28.977,-9.555 17.918,-0.496 0,0"
             style="fill:#9ccc54;fill-opacity:1;fill-rule:evenodd;stroke:none"
             id="path755" />
        </g>
        <g
           id="g757"
           transform="translate(205.5674,282.2773)">
          <path
             d="M 0,0 C 18.876,45.328 50.687,54.762 84.904,57.524 69.075,22.777 42.713,1.182 0,0"
             style="fill:#78ab2b;fill-opacity:1;fill-rule:evenodd;stroke:none"
             id="path759" />
        </g>
        <g
           id="g761"
           transform="translate(205.5674,282.2773)">
          <path
             d="m 0,0 c 9.253,22.22 21.615,35.811 35.846,44.223 11.286,4.162 23.393,6.047 35.819,7.05 C 62.651,31.486 50.219,15.967 33.3,6.051 23.49,2.424 12.439,0.344 0,0"
             style="fill:#86b83b;fill-opacity:1;fill-rule:evenodd;stroke:none"
             id="path763" />
        </g>
        <g
           id="g765"
           transform="translate(210.0996,287.6777)">
          <path
             d="M 0,0 C 7.918,19.014 21.263,22.971 35.614,24.131 28.976,9.555 17.917,0.496 0,0"
             style="fill:#9ccc54;fill-opacity:1;fill-rule:evenodd;stroke:none"
             id="path767" />
        </g>
        <g
           id="g769"
           transform="translate(161.627,354.3164)">
          <path
             d="M 0,0 C 47.663,-31.275 84.384,-19.627 119.071,0 81.227,23.091 41.825,26.68 0,0"
             style="fill:#78ab2b;fill-opacity:1;fill-rule:evenodd;stroke:none"
             id="path771" />
        </g>
        <g
           id="g773"
           transform="translate(161.627,354.3164)">
          <path
             d="m 0,0 c 23.364,-15.331 44.099,-20.344 63.253,-19.162 13.56,3.349 26.425,9.422 39.021,16.55 C 80.724,10.537 58.669,17.357 35.948,15.869 24.156,12.969 12.181,7.771 0,0"
             style="fill:#86b83b;fill-opacity:1;fill-rule:evenodd;stroke:none"
             id="path775" />
        </g>
        <g
           id="g777"
           transform="translate(169.501,352.0762)">
          <path
             d="M 0,0 C 19.993,-13.119 35.396,-8.233 49.945,0.001 34.072,9.686 17.544,11.191 0,0"
             style="fill:#9ccc54;fill-opacity:1;fill-rule:evenodd;stroke:none"
             id="path779" />
        </g>
        <g
           id="g781"
           transform="translate(419.0195,328.1992)">
          <path
             d="M 0,0 C -18.877,-45.328 -50.688,-54.762 -84.905,-57.524 -69.076,-22.777 -42.713,-1.182 0,0"
             style="fill:#6c9c24;fill-opacity:1;fill-rule:evenodd;stroke:none"
             id="path783" />
        </g>
        <g
           id="g785"
           transform="translate(419.0195,328.1992)">
          <path
             d="m 0,0 c -9.253,-22.219 -21.616,-35.81 -35.846,-44.223 -11.287,-4.162 -23.394,-6.047 -35.819,-7.049 9.013,19.786 21.445,35.305 38.364,45.221 C -23.491,-2.423 -12.44,-0.344 0,0"
             style="fill:#78ab2b;fill-opacity:1;fill-rule:evenodd;stroke:none"
             id="path787" />
        </g>
        <g
           id="g789"
           transform="translate(414.4863,322.7988)">
          <path
             d="M 0,0 C -7.918,-19.014 -21.262,-22.971 -35.614,-24.131 -28.975,-9.555 -17.916,-0.496 0,0"
             style="fill:#86b83b;fill-opacity:1;fill-rule:evenodd;stroke:none"
             id="path791" />
        </g>
        <g
           id="g793"
           transform="translate(419.0195,202.499)">
          <path
             d="M 0,0 C -18.877,45.329 -50.688,54.763 -84.905,57.525 -69.076,22.778 -42.713,1.183 0,0"
             style="fill:#6c9c24;fill-opacity:1;fill-rule:evenodd;stroke:none"
             id="path795" />
        </g>
        <g
           id="g797"
           transform="translate(419.0195,202.499)">
          <path
             d="m 0,0 c -9.253,22.221 -21.616,35.812 -35.846,44.224 -11.287,4.162 -23.394,6.047 -35.819,7.05 C -62.652,31.487 -50.22,15.969 -33.301,6.052 -23.491,2.424 -12.44,0.345 0,0"
             style="fill:#78ab2b;fill-opacity:1;fill-rule:evenodd;stroke:none"
             id="path799" />
        </g>
        <g
           id="g801"
           transform="translate(414.4863,207.9004)">
          <path
             d="M 0,0 C -7.918,19.014 -21.262,22.972 -35.614,24.131 -28.975,9.555 -17.916,0.496 0,0"
             style="fill:#86b83b;fill-opacity:1;fill-rule:evenodd;stroke:none"
             id="path803" />
        </g>
      </g>
    </g>
  </g>
</svg>
